<svg width="18" height="14" viewBox="0 0 18 14" fill="none" xmlns="http://www.w3.org/2000/svg">
<path d="M17.2501 2.10003H12.8384L11.9208 0.386865C11.8585 0.270628 11.7627 0.172875 11.6442 0.10455C11.5258 0.0362243 11.3893 2.34141e-05 11.25 0H6.75C6.61074 2.34141e-05 6.47423 0.0362243 6.35576 0.10455C6.2373 0.172875 6.14154 0.270628 6.07922 0.386865L5.16164 2.10003H0.749883C0.551002 2.10003 0.360266 2.17377 0.219636 2.30503C0.0790053 2.43629 0 2.61431 0 2.79993L0 13.3001C0 13.4857 0.0790053 13.6637 0.219636 13.795C0.360266 13.9263 0.551002 14 0.749883 14H17.2501C17.449 14 17.6397 13.9263 17.7804 13.795C17.921 13.6637 18 13.4857 18 13.3001V2.79993C18 2.61431 17.921 2.43629 17.7804 2.30503C17.6397 2.17377 17.449 2.10003 17.2501 2.10003V2.10003ZM9 11.2001C8.2583 11.2001 7.53325 10.9948 6.91655 10.6102C6.29984 10.2256 5.81918 9.67893 5.53534 9.03936C5.25151 8.39979 5.17724 7.69602 5.32194 7.01705C5.46664 6.33809 5.8238 5.71442 6.34827 5.22491C6.87273 4.73541 7.54094 4.40205 8.26839 4.26699C8.99584 4.13194 9.74986 4.20125 10.4351 4.46617C11.1204 4.73109 11.706 5.17972 12.1181 5.75532C12.5302 6.33091 12.7501 7.00763 12.7501 7.6999C12.749 8.62788 12.3535 9.51756 11.6505 10.1737C10.9475 10.8299 9.99425 11.199 9 11.2001V11.2001ZM11.25 7.6999C11.25 8.11525 11.118 8.52127 10.8708 8.86662C10.6236 9.21197 10.2722 9.48113 9.86104 9.64008C9.4499 9.79903 8.9975 9.84061 8.56105 9.75958C8.12459 9.67855 7.72368 9.47855 7.40901 9.18485C7.09434 8.89116 6.88005 8.51696 6.79323 8.1096C6.70642 7.70223 6.75097 7.27999 6.92127 6.89625C7.09157 6.51252 7.37996 6.18454 7.74997 5.95379C8.11998 5.72303 8.55499 5.59987 9 5.59987C9.59654 5.60048 10.1685 5.82193 10.5903 6.21563C11.0121 6.60933 11.2493 7.14313 11.25 7.6999V7.6999Z" fill="white"/>
</svg>
